<svg width="112" height="112" viewBox="0 0 112 112" fill="none" xmlns="http://www.w3.org/2000/svg">
<circle cx="56" cy="56" r="55.3636" fill="#FEF351" stroke="#0A0A0A" stroke-width="1.27273"/>
<path d="M98.7495 57.1524L98.6096 58.4431L95.4818 58.1041L95.0507 62.0823L98.1786 62.4212L98.0387 63.7118L90.1886 62.8612L90.3285 61.5706L93.9423 61.9622L94.3733 57.984L90.7596 57.5924L90.8994 56.3018L98.7495 57.1524Z" fill="#0A0A0A"/>
<path d="M89.1565 65.8342C89.2703 65.4965 89.4162 65.1912 89.5942 64.9181C89.7626 64.6417 89.9678 64.4154 90.2099 64.2392C90.4584 64.0758 90.7356 63.9705 91.0417 63.9232C91.3541 63.8889 91.6985 63.9351 92.0748 64.0619C92.4993 64.205 92.8222 64.3945 93.0436 64.6303C93.265 64.8661 93.4187 65.1274 93.5046 65.4142C93.597 65.714 93.6362 66.0281 93.6222 66.3564C93.6049 66.6945 93.5716 67.0324 93.5222 67.3703C93.4759 67.7308 93.4168 68.0655 93.3449 68.3743C93.2794 68.6961 93.2366 68.9825 93.2164 69.2336C93.2059 69.4879 93.2358 69.7021 93.306 69.8762C93.3859 70.0536 93.5417 70.1813 93.7732 70.2593C94.0434 70.3504 94.2783 70.3705 94.4781 70.3197C94.6747 70.2785 94.844 70.1905 94.9862 70.0557C95.125 69.9306 95.2431 69.7717 95.3403 69.5788C95.4343 69.3956 95.5138 69.2075 95.5789 69.0145C95.7545 68.4935 95.7996 68.0252 95.714 67.6096C95.6382 67.1972 95.3301 66.8838 94.7899 66.6695L95.2046 65.4393C95.6612 65.6147 96.0194 65.8429 96.2793 66.1239C96.5391 66.4049 96.7168 66.7227 96.8122 67.0772C96.9172 67.4349 96.9514 67.8117 96.9146 68.2077C96.8746 68.6132 96.783 69.0283 96.6399 69.4528C96.5261 69.7905 96.3898 70.1152 96.231 70.427C96.0689 70.7484 95.8651 71.0182 95.6197 71.2363C95.3839 71.4577 95.1033 71.6049 94.7778 71.6778C94.4524 71.7508 94.0726 71.7141 93.6384 71.5677L89.7887 70.27C89.4992 70.1725 89.2821 70.1154 89.1373 70.0988C88.9892 70.0919 88.8826 70.1849 88.8176 70.3778C88.7883 70.4647 88.7701 70.5982 88.7631 70.7785L87.8079 70.4565C87.754 70.202 87.7905 69.8866 87.9173 69.5103C88.0247 69.1919 88.1977 68.9655 88.4364 68.831C88.6815 68.7095 89.0067 68.7171 89.4119 68.8537C89.1205 68.3794 88.9596 67.8846 88.9291 67.3693C88.9051 66.8669 88.9809 66.3553 89.1565 65.8342ZM90.1348 66.4702C89.9982 66.8755 89.9341 67.2407 89.9427 67.5659C89.9609 67.8944 90.0211 68.1779 90.1234 68.4166C90.2352 68.6584 90.373 68.8553 90.5367 69.0072C90.7101 69.1623 90.8836 69.2692 91.0572 69.3277L92.3164 69.7521C92.243 69.5555 92.2244 69.3236 92.2608 69.0565C92.2971 68.7893 92.3431 68.5094 92.3988 68.2166C92.4513 67.9334 92.5054 67.6454 92.5611 67.3526C92.6168 67.0598 92.6339 66.7862 92.6122 66.5317C92.5905 66.2773 92.5124 66.0468 92.3779 65.8403C92.2497 65.6467 92.0313 65.4978 91.7225 65.3937C91.5199 65.3254 91.3332 65.3055 91.1625 65.3339C90.9981 65.3752 90.8514 65.4439 90.7223 65.5401C90.5899 65.6459 90.4752 65.7791 90.378 65.9398C90.2809 66.1005 90.1998 66.2773 90.1348 66.4702Z" fill="#0A0A0A"/>
<path d="M87.7755 76.7436C87.8097 76.4906 87.8958 76.1618 88.0337 75.7572C88.1716 75.3527 88.3592 74.9545 88.5966 74.5626C89.103 73.7266 89.6429 73.2381 90.2163 73.0974C90.7983 72.9619 91.4159 73.0919 92.0691 73.4876L94.3812 74.8881L93.7087 75.9985L91.5794 74.7087C91.1352 74.4397 90.7436 74.3394 90.4046 74.4078C90.069 74.4902 89.7376 74.8014 89.4106 75.3413C89.2101 75.6722 89.0471 76.0199 88.9216 76.3844C88.7961 76.7488 88.7189 77.0532 88.6899 77.2975L91.7859 79.1728L91.1133 80.2832L84.3596 76.1923L85.0322 75.0819L87.7755 76.7436Z" fill="#0A0A0A"/>
<path d="M81.8018 78.9996C82.0482 78.7422 82.31 78.5276 82.5871 78.356C82.8568 78.1772 83.1387 78.0595 83.4327 78.0027C83.7271 77.9602 84.0228 77.9826 84.32 78.0697C84.6174 78.1713 84.9096 78.3593 85.1964 78.6339C85.52 78.9437 85.732 79.2524 85.8323 79.5598C85.9327 79.8673 85.9608 80.1691 85.9169 80.4654C85.8733 80.776 85.7754 81.077 85.6233 81.3683C85.4642 81.6671 85.2905 81.9589 85.1023 82.2438C84.9074 82.5506 84.7118 82.8285 84.5156 83.0776C84.3197 83.3411 84.1593 83.5823 84.0345 83.801C83.917 84.0268 83.853 84.2335 83.8427 84.4209C83.8398 84.6154 83.9266 84.7972 84.1031 84.9661C84.309 85.1633 84.5132 85.2813 84.7157 85.3201C84.9111 85.3662 85.1018 85.3584 85.2877 85.2968C85.4665 85.2425 85.6409 85.1486 85.8109 85.0153C85.9737 84.8893 86.1256 84.7528 86.2664 84.6057C86.6466 84.2086 86.8862 83.8037 86.9853 83.391C87.0916 82.9854 86.9458 82.5709 86.5477 82.1475L87.4454 81.2098C87.7844 81.5625 88.0118 81.9212 88.1278 82.2859C88.2438 82.6506 88.2697 83.0137 88.2056 83.3752C88.1488 83.7437 88.0197 84.0994 87.8183 84.4423C87.6099 84.7925 87.3508 85.1294 87.041 85.453C86.7946 85.7104 86.5333 85.9465 86.2571 86.1614C85.9739 86.3836 85.6749 86.5414 85.3601 86.6346C85.0526 86.735 84.7361 86.7491 84.4104 86.677C84.0848 86.6048 83.7565 86.4104 83.4255 86.0935L80.4909 83.2842C80.2703 83.0729 80.0979 82.9291 79.9738 82.8526C79.8427 82.7834 79.7067 82.8224 79.5659 82.9695C79.5025 83.0357 79.4294 83.1489 79.3465 83.3091L78.6183 82.6121C78.6776 82.3587 78.8446 82.0886 79.1192 81.8018C79.3515 81.5591 79.6043 81.4276 79.8775 81.4072C80.151 81.4012 80.4422 81.5461 80.7511 81.8418C80.6887 81.2887 80.753 80.7724 80.9442 80.2929C81.1357 79.8279 81.4216 79.3968 81.8018 78.9996ZM82.4175 79.9908C82.1218 80.2997 81.9087 80.6032 81.7784 80.9013C81.6555 81.2064 81.5896 81.4887 81.5808 81.7481C81.5795 82.0146 81.6206 82.2513 81.7044 82.4584C81.7954 82.6724 81.9072 82.8428 82.0396 82.9696L82.9994 83.8884C83.0164 83.6792 83.0981 83.4614 83.2444 83.2349C83.3907 83.0085 83.5512 82.7746 83.726 82.5331C83.8937 82.299 84.0649 82.0612 84.2397 81.8198C84.4145 81.5783 84.5461 81.3378 84.6344 81.0982C84.7228 80.8587 84.75 80.6168 84.7158 80.3727C84.682 80.143 84.5475 79.9155 84.3121 79.6902C84.1576 79.5423 83.9971 79.445 83.8304 79.3982C83.6641 79.3659 83.5021 79.3658 83.3443 79.398C83.1796 79.4376 83.0191 79.5096 82.863 79.6138C82.7068 79.718 82.5583 79.8437 82.4175 79.9908Z" fill="#0A0A0A"/>
<path d="M80.236 89.6573L82.5627 88.0543L83.2126 88.9975L77.4903 92.9402L76.8404 91.997L79.167 90.3939L75.337 84.835L76.406 84.0985L80.236 89.6573Z" fill="#0A0A0A"/>
<path d="M75.6586 93.9643L74.463 94.47L73.285 91.6849L70.6968 92.7796C69.9841 93.081 69.3288 93.126 68.7308 92.9146C68.1369 92.7126 67.6911 92.2599 67.3936 91.5566C67.1041 90.8721 67.0784 90.2362 67.3165 89.6491C67.5546 89.062 68.03 88.6177 68.7426 88.3162L72.5827 86.692L75.6586 93.9643ZM69.6249 89.1868C68.6215 89.6112 68.2904 90.2266 68.6315 91.0331C68.9686 91.8302 69.6389 92.0165 70.6423 91.5921L72.8507 90.658L71.8333 88.2527L69.6249 89.1868Z" fill="#0A0A0A"/>
<path d="M61.6992 98.4248L60.4021 98.4798L60.3568 97.4117L60.3263 97.413C60.1312 97.8595 59.8089 98.1891 59.3594 98.4019C58.9102 98.6247 58.411 98.7479 57.8617 98.7712C57.2513 98.7971 56.7176 98.7077 56.2605 98.5029C55.7932 98.2986 55.4039 98.0094 55.0924 97.6353C54.7713 97.2719 54.5238 96.8442 54.35 96.3522C54.1763 95.8602 54.0775 95.3345 54.0537 94.775C54.0295 94.2053 54.0832 93.668 54.2146 93.1631C54.3363 92.6688 54.5417 92.2269 54.8309 91.8376C55.1103 91.4588 55.4744 91.1529 55.9231 90.9198C56.3616 90.6872 56.881 90.5581 57.4812 90.5326C57.6846 90.524 57.9042 90.5351 58.1399 90.5658C58.3756 90.5966 58.6124 90.6528 58.8502 90.7344C59.0881 90.816 59.3171 90.9285 59.5372 91.0721C59.7475 91.2262 59.9289 91.4172 60.0813 91.6451L60.1118 91.6438L59.9394 87.5849L61.2364 87.5299L61.6992 98.4248ZM57.6665 91.656C57.229 91.6746 56.8614 91.7768 56.5636 91.9627C56.2657 92.1486 56.0313 92.3878 55.8603 92.6805C55.6893 92.9731 55.5709 93.3042 55.5051 93.6739C55.4392 94.0436 55.4145 94.4217 55.4309 94.8082C55.4465 95.1745 55.5125 95.5283 55.6289 95.8699C55.7356 96.222 55.8965 96.5311 56.1116 96.7971C56.3165 97.0636 56.5802 97.2715 56.9024 97.4209C57.2145 97.5707 57.5791 97.6367 57.9962 97.619C58.4336 97.6004 58.8012 97.4982 59.0991 97.3123C59.3969 97.1264 59.6364 96.8869 59.8176 96.5939C59.9992 96.311 60.1282 95.9896 60.2047 95.6297C60.2709 95.2702 60.2963 94.9073 60.2807 94.5411C60.2643 94.1545 60.2025 93.7801 60.0954 93.4178C59.9887 93.0656 59.8329 92.7563 59.628 92.4899C59.4129 92.2238 59.1439 92.0111 58.8212 91.8515C58.499 91.7021 58.1141 91.637 57.6665 91.656Z" fill="#0A0A0A"/>
<path d="M50.3617 90.1411C50.7112 90.2106 51.0328 90.316 51.3265 90.4574C51.6222 90.5888 51.8731 90.7632 52.079 90.9806C52.273 91.206 52.4131 91.4674 52.4993 91.7648C52.5736 92.0702 52.5721 92.4177 52.4947 92.8071C52.4074 93.2465 52.2611 93.5912 52.0557 93.8411C51.8504 94.0909 51.611 94.2769 51.3376 94.3991C51.0522 94.5292 50.7458 94.6085 50.4183 94.6369C50.0809 94.6633 49.7415 94.6737 49.4 94.6681C49.0366 94.6686 48.6971 94.6531 48.3816 94.6215C48.0541 94.598 47.7645 94.5924 47.5129 94.6047C47.2594 94.627 47.0508 94.6841 46.8871 94.7762C46.7215 94.8782 46.6149 95.0491 46.5673 95.2888C46.5118 95.5684 46.522 95.804 46.5982 95.9956C46.6643 96.1852 46.7733 96.3418 46.9252 96.4655C47.0672 96.5871 47.24 96.6837 47.4438 96.7553C47.6376 96.825 47.8343 96.8796 48.0341 96.9193C48.5733 97.0264 49.0436 97.0109 49.4448 96.8726C49.844 96.7443 50.1151 96.3985 50.2581 95.8352L51.5314 96.0881C51.4162 96.5635 51.236 96.9482 50.9908 97.242C50.7455 97.5359 50.4533 97.7529 50.114 97.8931C49.7727 98.0433 49.4034 98.1256 49.0061 98.1401C48.5987 98.1526 48.1754 98.1152 47.736 98.0279C47.3864 97.9585 47.0468 97.8651 46.7172 97.7477C46.3776 97.6283 46.0839 97.4609 45.836 97.2456C45.5861 97.0403 45.4041 96.7809 45.2898 96.4675C45.1756 96.1542 45.1632 95.7728 45.2524 95.3234L46.0441 91.3387C46.1036 91.0391 46.1323 90.8165 46.1301 90.6707C46.1179 90.523 46.012 90.4292 45.8122 90.3896C45.7223 90.3717 45.5876 90.3709 45.4079 90.3871L45.6043 89.3984C45.8498 89.3122 46.1673 89.3078 46.5567 89.3852C46.8863 89.4507 47.1331 89.5931 47.2971 89.8126C47.4492 90.04 47.4835 90.3635 47.4002 90.7829C47.8331 90.4329 48.303 90.2096 48.8101 90.1132C49.3052 90.0247 49.8224 90.034 50.3617 90.1411ZM49.8568 91.1931C49.4374 91.1098 49.0669 91.0933 48.7455 91.1436C48.4221 91.2039 48.1487 91.3001 47.9252 91.4322C47.6997 91.5742 47.5222 91.7362 47.3927 91.9181C47.2611 92.11 47.1775 92.2958 47.1418 92.4755L46.8829 93.7788C47.0684 93.6807 47.296 93.6325 47.5656 93.6341C47.8352 93.6358 48.1187 93.6454 48.4163 93.663C48.7038 93.6786 48.9964 93.6952 49.2939 93.7128C49.5915 93.7304 49.865 93.7121 50.1146 93.6578C50.3641 93.6036 50.5826 93.4965 50.7701 93.3365C50.9456 93.1845 51.0651 92.9487 51.1286 92.6292C51.1703 92.4195 51.1661 92.2318 51.1159 92.0661C51.0538 91.9084 50.9668 91.7717 50.8548 91.6561C50.7329 91.5384 50.586 91.4418 50.4141 91.3661C50.2423 91.2904 50.0565 91.2328 49.8568 91.1931Z" fill="#0A0A0A"/>
<path d="M41.8535 87.5794C42.7852 87.99 43.4352 88.5602 43.8035 89.2899C44.1624 90.0156 44.1968 90.9097 43.9065 91.9723C43.79 92.3883 43.625 92.8385 43.4114 93.323C43.2595 93.6678 43.0921 94.0224 42.9093 94.3868C42.7171 94.7472 42.513 95.0968 42.2969 95.4355C42.0716 95.7701 41.8338 96.0826 41.5835 96.3728C41.3238 96.659 41.046 96.8982 40.7499 97.0904C40.2155 97.4446 39.6687 97.6376 39.1095 97.6693C38.5462 97.7104 37.9096 97.6023 37.1995 97.345C36.7266 97.1811 36.3261 97.0547 35.9981 96.9658C35.6701 96.8769 35.4464 96.9174 35.327 97.0873L34.1391 96.5638C34.3178 96.2086 34.5202 95.964 34.7462 95.8299C34.9722 95.6959 35.2335 95.633 35.5303 95.6414C35.8229 95.6591 36.1591 95.7293 36.5389 95.8522C36.9146 95.9844 37.3529 96.1386 37.8538 96.3148C38.2668 96.4634 38.6572 96.5242 39.0252 96.4972C39.3931 96.4702 39.7438 96.3688 40.0771 96.1931C40.3971 96.0225 40.7024 95.7843 40.9929 95.4784C41.2794 95.1818 41.545 94.8316 41.7898 94.4276L41.7478 94.4091C41.3335 94.794 40.8442 95.0457 40.2802 95.1643C39.7067 95.2788 39.1126 95.2005 38.4976 94.9296C37.4821 94.482 36.8204 93.8121 36.5126 92.9199C36.2048 92.0276 36.3137 90.9852 36.8392 89.7926C37.1061 89.187 37.426 88.6882 37.799 88.2962C38.1586 87.9095 38.5573 87.6234 38.995 87.438C39.4287 87.2619 39.8901 87.1871 40.3791 87.2134C40.8589 87.2357 41.3503 87.3577 41.8535 87.5794ZM41.3961 88.5795C41.1165 88.4563 40.8217 88.3932 40.5116 88.39C40.1973 88.3962 39.8931 88.468 39.5989 88.6054C39.3047 88.7427 39.0251 88.9478 38.7603 89.2205C38.4914 89.5026 38.2604 89.8626 38.0674 90.3005C37.6938 91.1483 37.5959 91.9007 37.7737 92.5577C37.9515 93.2146 38.3759 93.6909 39.0467 93.9865C39.7176 94.2822 40.3621 94.2713 40.9804 93.9541C41.5852 93.642 42.0744 93.0621 42.4481 92.2142C42.8094 91.3943 42.8991 90.6605 42.7171 90.0129C42.5352 89.3652 42.0949 88.8875 41.3961 88.5795Z" fill="#0A0A0A"/>
<path d="M35.4363 83.84C35.944 84.2151 36.3299 84.6267 36.5938 85.0748C36.8435 85.5251 36.9905 85.9944 37.0348 86.4828C37.0731 86.9794 37.0095 87.4768 36.8441 87.9749C36.6787 88.473 36.4236 88.9554 36.0788 89.4222C35.734 89.8891 35.3479 90.2747 34.9204 90.5792C34.4869 90.8919 34.0302 91.0989 33.5503 91.2002C33.0644 91.3096 32.5696 91.3112 32.0658 91.2049C31.5539 91.0926 31.044 90.8489 30.5362 90.4738C30.0367 90.1048 29.6579 89.6921 29.4 89.2358C29.1421 88.7795 28.9941 88.3031 28.9558 87.8064C28.9115 87.318 28.9751 86.8207 29.1465 86.3144C29.3119 85.8163 29.567 85.3338 29.9118 84.867C30.2567 84.4002 30.6428 84.0145 31.0703 83.71C31.4977 83.4055 31.9544 83.1985 32.4403 83.0891C32.9202 82.9878 33.4161 82.9934 33.928 83.1057C34.4339 83.2262 34.9367 83.471 35.4363 83.84ZM34.7648 84.7491C34.4945 84.5495 34.2013 84.4152 33.8852 84.3462C33.5608 84.2712 33.236 84.2654 32.9106 84.3289C32.5792 84.4005 32.2555 84.5475 31.9394 84.7697C31.6091 84.9941 31.3018 85.2988 31.0175 85.6837C30.7331 86.0686 30.5353 86.4478 30.424 86.8213C30.2985 87.1969 30.2502 87.5536 30.2791 87.8915C30.308 88.2293 30.406 88.5422 30.5731 88.8302C30.732 89.1121 30.9465 89.3528 31.2168 89.5525C31.4871 89.7521 31.7844 89.8894 32.1087 89.9644C32.4248 90.0334 32.7486 90.032 33.08 89.9604C33.4115 89.8887 33.7423 89.7407 34.0726 89.5163C34.3887 89.2941 34.6889 88.9905 34.9732 88.6056C35.2575 88.2206 35.4624 87.8404 35.588 87.4648C35.6993 87.0913 35.7405 86.7356 35.7115 86.3978C35.6766 86.0681 35.5796 85.7624 35.4208 85.4805C35.2537 85.1925 35.035 84.9487 34.7648 84.7491Z" fill="#0A0A0A"/>
<path d="M25.6842 84.4124L27.5779 86.5093L26.7278 87.277L22.0703 82.1197L22.9204 81.352L24.8141 83.4489L29.8241 78.9245L30.6941 79.8879L25.6842 84.4124Z" fill="#0A0A0A"/>
<path d="M29.939 74.0798C30.0186 74.2102 30.0895 74.3458 30.1517 74.4868C30.2139 74.6277 30.2605 74.7723 30.2913 74.9205L29.2747 75.5414C29.2458 75.4159 29.2168 75.2904 29.1879 75.1649C29.1537 75.0307 29.1021 74.9072 29.0331 74.7942C28.8951 74.5683 28.7315 74.4176 28.5423 74.3423C28.3531 74.267 28.1268 74.2382 27.8632 74.256L26.4506 74.4924L21.3831 81.2561L20.6189 80.0049L24.9302 74.6694L24.9143 74.6433L18.2466 76.1207L17.5302 74.9477L26.9462 73.2233C27.356 73.152 27.7136 73.1125 28.0192 73.1049C28.3194 73.0885 28.5868 73.1161 28.8213 73.1876C29.0593 73.2451 29.267 73.3508 29.4446 73.5049C29.6256 73.6449 29.7904 73.8365 29.939 74.0798Z" fill="#0A0A0A"/>
<path d="M13.2477 52.6358L13.4518 51.3537L16.5589 51.8483L17.1879 47.8966L14.0808 47.402L14.2849 46.12L22.0827 47.3612L21.8786 48.6433L18.2889 48.0719L17.6599 52.0236L21.2496 52.595L21.0455 53.877L13.2477 52.6358Z" fill="#0A0A0A"/>
<path d="M23.3239 44.2648C23.1913 44.5955 23.0284 44.8922 22.8353 45.1549C22.6517 45.4213 22.434 45.6357 22.1824 45.798C21.9251 45.9472 21.6424 46.0367 21.3342 46.0667C21.0203 46.0834 20.6791 46.0178 20.3105 45.87C19.8947 45.7032 19.5829 45.4959 19.3752 45.248C19.1675 45.0001 19.0287 44.7306 18.9591 44.4393C18.8837 44.1349 18.8623 43.8191 18.8947 43.492C18.931 43.1555 18.9833 42.82 19.0517 42.4854C19.1182 42.1281 19.196 41.7973 19.2852 41.493C19.3687 41.1754 19.4275 40.8918 19.4618 40.6423C19.4866 40.389 19.4689 40.1734 19.4085 39.9956C19.3387 39.8141 19.1905 39.6778 18.9637 39.5868C18.6991 39.4807 18.4656 39.4474 18.2632 39.4869C18.0647 39.517 17.8907 39.5953 17.7412 39.7218C17.5955 39.8389 17.4687 39.991 17.3607 40.178C17.2566 40.3557 17.1666 40.539 17.0908 40.728C16.8861 41.2383 16.8147 41.7033 16.8767 42.1231C16.9293 42.5391 17.2192 42.8693 17.7465 43.1137L17.2632 44.3186C16.8172 44.1178 16.4724 43.8698 16.2287 43.5746C15.9851 43.2794 15.8257 42.9522 15.7504 42.5929C15.6656 42.2298 15.6528 41.8516 15.7117 41.4584C15.7745 41.0557 15.8893 40.6465 16.0561 40.2307C16.1887 39.8999 16.3431 39.5834 16.5192 39.281C16.6992 38.9692 16.9178 38.7114 17.1751 38.5074C17.423 38.2997 17.7114 38.1685 18.0405 38.114C18.3695 38.0595 18.7467 38.1175 19.1719 38.2881L22.9425 39.8004C23.226 39.9142 23.4396 39.9834 23.5832 40.0081C23.7307 40.0234 23.8423 39.9365 23.9181 39.7475C23.9522 39.6624 23.9779 39.5301 23.9951 39.3505L24.9306 39.7258C24.9701 39.9829 24.9159 40.2958 24.7681 40.6643C24.643 40.9762 24.4575 41.1925 24.2116 41.3133C23.96 41.4208 23.6358 41.395 23.2389 41.2358C23.5031 41.7257 23.636 42.2288 23.6374 42.745C23.6331 43.2479 23.5286 43.7545 23.3239 44.2648ZM22.383 43.5747C22.5422 43.1778 22.6267 42.8168 22.6365 42.4916C22.6368 42.1626 22.5926 41.8761 22.504 41.6321C22.4059 41.3844 22.2794 41.18 22.1245 41.0192C21.9602 40.8545 21.793 40.7381 21.6229 40.6699L20.3896 40.1752C20.4518 40.3757 20.4573 40.6083 20.406 40.8729C20.3547 41.1376 20.293 41.4145 20.2209 41.7037C20.1525 41.9835 20.0823 42.268 20.0102 42.5572C19.9381 42.8464 19.9057 43.1186 19.913 43.3739C19.9203 43.6291 19.9853 43.8636 20.108 44.0774C20.2251 44.2779 20.4348 44.4388 20.7372 44.5601C20.9356 44.6397 21.1209 44.6702 21.293 44.6514C21.4594 44.6194 21.6097 44.5591 21.7441 44.4703C21.8822 44.3721 22.0042 44.2456 22.1103 44.0906C22.2163 43.9357 22.3072 43.7637 22.383 43.5747Z" fill="#0A0A0A"/>
<path d="M25.2556 33.5158C25.2075 33.7666 25.1035 34.0902 24.9435 34.4865C24.7836 34.8828 24.5743 35.2701 24.3158 35.6484C23.7641 36.4553 23.1982 36.9133 22.618 37.0223C22.0294 37.1256 21.4199 36.9618 20.7895 36.5308L18.5578 35.0052L19.2904 33.9335L21.3456 35.3384C21.7743 35.6315 22.1598 35.7532 22.502 35.7035C22.8417 35.6397 23.1896 35.3472 23.5459 34.8261C23.7642 34.5067 23.9461 34.1685 24.0915 33.8115C24.2368 33.4545 24.3307 33.1548 24.373 32.9125L21.3849 30.8697L22.1175 29.798L28.636 34.2541L27.9033 35.3258L25.2556 33.5158Z" fill="#0A0A0A"/>
<path d="M31.3385 31.5662C31.0784 31.8098 30.8053 32.0098 30.5193 32.1661C30.2402 32.3299 29.9523 32.4321 29.6556 32.4728C29.3594 32.4992 29.0653 32.4607 28.7734 32.3575C28.4819 32.24 28.2004 32.0362 27.929 31.7464C27.6227 31.4195 27.4279 31.0997 27.3444 30.7873C27.261 30.4748 27.2493 30.1718 27.3093 29.8785C27.3698 29.5707 27.4839 29.2755 27.6517 28.9928C27.8268 28.7032 28.0161 28.4213 28.2196 28.147C28.431 27.8514 28.6414 27.5845 28.8509 27.3464C29.0608 27.094 29.2341 26.8619 29.3707 26.6503C29.5003 26.4312 29.5754 26.2284 29.5959 26.0418C29.6094 25.8477 29.5327 25.6615 29.3656 25.4832C29.1707 25.2751 28.9733 25.1462 28.7732 25.0964C28.5806 25.0397 28.3898 25.0371 28.2008 25.0885C28.0192 25.133 27.84 25.2172 27.6631 25.341C27.4936 25.458 27.3345 25.586 27.1859 25.7252C26.7846 26.1011 26.5233 26.4923 26.4019 26.899C26.2736 27.2982 26.3967 27.72 26.7711 28.1644L25.8236 29.0519C25.5044 28.6813 25.2968 28.3107 25.2009 27.9402C25.105 27.5697 25.0989 27.2057 25.1826 26.8483C25.2593 26.4834 25.4076 26.1353 25.6273 25.8039C25.8545 25.4656 26.1316 25.1433 26.4586 24.837C26.7187 24.5934 26.9924 24.3718 27.2799 24.1723C27.5748 23.9659 27.882 23.8247 28.2014 23.7487C28.5139 23.6652 28.8307 23.6684 29.1519 23.7582C29.4732 23.8479 29.7904 24.06 30.1036 24.3944L32.8808 27.3594C33.0896 27.5824 33.2539 27.7354 33.3736 27.8186C33.5008 27.8948 33.6387 27.8632 33.7873 27.724C33.8542 27.6614 33.9334 27.5523 34.0249 27.3968L34.714 28.1325C34.641 28.3823 34.4596 28.6429 34.1698 28.9143C33.9245 29.144 33.665 29.2616 33.3911 29.267C33.1176 29.2581 32.8347 29.0976 32.5424 28.7854C32.5746 29.3412 32.4823 29.8532 32.2652 30.3215C32.0487 30.7755 31.7398 31.1904 31.3385 31.5662ZM30.7777 30.543C31.0898 30.2507 31.319 29.9592 31.4654 29.6687C31.6048 29.3707 31.686 29.0924 31.7088 28.8338C31.7247 28.5678 31.6965 28.3292 31.6242 28.1179C31.5449 27.8992 31.4426 27.723 31.3173 27.5892L30.409 26.6194C30.3806 26.8274 30.2872 27.0405 30.1288 27.2586C29.9703 27.4767 29.7973 27.7016 29.6097 27.9331C29.4294 28.1578 29.2455 28.3859 29.0578 28.6174C28.8701 28.849 28.7257 29.082 28.6243 29.3164C28.523 29.5508 28.4828 29.7908 28.5035 30.0364C28.5248 30.2676 28.6468 30.5021 28.8695 30.7399C29.0157 30.896 29.1707 31.0019 29.3346 31.0577C29.4989 31.0991 29.6607 31.1079 29.8199 31.0843C29.9866 31.0538 30.1507 30.9907 30.3123 30.8952C30.4739 30.7996 30.6291 30.6822 30.7777 30.543Z" fill="#0A0A0A"/>
<path d="M33.3456 21.08L30.9397 22.5616L30.3391 21.5862L36.2562 17.9423L36.8568 18.9177L34.451 20.3993L37.9907 26.1473L36.8854 26.828L33.3456 21.08Z" fill="#0A0A0A"/>
<path d="M38.1456 16.9904L39.3661 16.5481L40.3965 19.3911L43.0386 18.4336C43.7661 18.1699 44.4228 18.1593 45.0089 18.4018C45.5915 18.6347 46.0129 19.1101 46.2731 19.828C46.5263 20.5268 46.5187 21.1631 46.2501 21.737C45.9816 22.3108 45.4836 22.7296 44.7561 22.9932L40.8361 24.4139L38.1456 16.9904ZM43.9206 22.0777C44.9449 21.7064 45.3078 21.1092 45.0095 20.286C44.7146 19.4723 44.055 19.2511 43.0308 19.6223L40.7764 20.4393L41.6663 22.8947L43.9206 22.0777Z" fill="#0A0A0A"/>
<path d="M52.4908 13.2097L53.7888 13.2297L53.7723 14.2987L53.8029 14.2991C54.0234 13.8647 54.3643 13.5543 54.8254 13.3679C55.2866 13.1714 55.7921 13.0773 56.3419 13.0858C56.9527 13.0953 57.4804 13.2154 57.9249 13.4463C58.3796 13.6774 58.7515 13.9886 59.0408 14.38C59.3404 14.7614 59.5627 15.2027 59.7077 15.7039C59.8527 16.2051 59.9209 16.7357 59.9122 17.2956C59.9034 17.8657 59.8188 18.399 59.6584 18.8955C59.5083 19.382 59.2777 19.8112 58.9665 20.1832C58.6656 20.5451 58.2844 20.8295 57.823 21.0362C57.3717 21.2431 56.8458 21.3419 56.2451 21.3326C56.0415 21.3294 55.8229 21.3057 55.5894 21.2614C55.3559 21.217 55.1227 21.1472 54.89 21.052C54.6573 20.9568 54.4352 20.8311 54.2237 20.6751C54.0226 20.5091 53.8526 20.3079 53.7137 20.0715L53.6832 20.0711L53.6205 24.1331L52.3224 24.1131L52.4908 13.2097ZM56.1251 20.2004C56.5629 20.2072 56.9358 20.1264 57.2439 19.958C57.552 19.7897 57.7999 19.5644 57.9875 19.2822C58.1752 18.9999 58.3126 18.6762 58.3997 18.3109C58.4868 17.9457 58.5333 17.5696 58.5393 17.1828C58.5449 16.8163 58.4995 16.4592 58.4031 16.1115C58.3169 15.7537 58.1742 15.4358 57.9748 15.1578C57.7856 14.88 57.5345 14.6572 57.2214 14.4894C56.9185 14.3218 56.5584 14.2348 56.141 14.2283C55.7032 14.2216 55.3303 14.3023 55.0222 14.4707C54.7141 14.6391 54.4611 14.8643 54.2633 15.1463C54.0656 15.4182 53.9182 15.7316 53.8211 16.0865C53.7341 16.4416 53.6878 16.8024 53.6822 17.1689C53.6762 17.5557 53.7162 17.9331 53.8022 18.3011C53.8883 18.6588 54.0259 18.9766 54.2151 19.2545C54.4145 19.5325 54.6706 19.7605 54.9836 19.9384C55.2967 20.1062 55.6772 20.1935 56.1251 20.2004Z" fill="#0A0A0A"/>
<path d="M63.2147 22.0686C62.8694 21.9807 62.5539 21.8583 62.2681 21.7014C61.9798 21.5544 61.7387 21.3669 61.5446 21.1388C61.3629 20.9034 61.2369 20.6349 61.1667 20.3333C61.1088 20.0244 61.1288 19.6775 61.2269 19.2927C61.3375 18.8586 61.502 18.5222 61.7203 18.2837C61.9387 18.0451 62.1877 17.8721 62.4672 17.7647C62.7591 17.6499 63.0693 17.5871 63.3978 17.5763C63.7362 17.5679 64.0757 17.5756 64.4164 17.5993C64.7793 17.6182 65.1175 17.6519 65.4309 17.7002C65.7567 17.7411 66.0455 17.7622 66.2974 17.7633C66.5518 17.7546 66.7631 17.7086 66.9314 17.6254C67.1022 17.5323 67.2178 17.3674 67.2781 17.1306C67.3485 16.8543 67.3508 16.6185 67.285 16.4231C67.2291 16.2302 67.1285 16.068 66.9834 15.9365C66.8482 15.8075 66.6807 15.7018 66.4811 15.6194C66.2913 15.5395 66.0977 15.4745 65.9004 15.4242C65.3676 15.2884 64.8972 15.2789 64.4892 15.3956C64.0837 15.5025 63.7946 15.8333 63.6217 16.3882L62.3637 16.0677C62.5041 15.5991 62.7045 15.2247 62.9651 14.9443C63.2256 14.664 63.529 14.4628 63.8753 14.3409C64.2241 14.2091 64.5973 14.1466 64.9948 14.1533C65.4023 14.1625 65.823 14.2224 66.2572 14.333C66.6025 14.421 66.9366 14.5324 67.2595 14.6672C67.5923 14.8045 67.8767 14.9873 68.1127 15.2155C68.3513 15.4339 68.5193 15.7026 68.6166 16.0216C68.714 16.3406 68.7061 16.7221 68.593 17.1661L67.59 21.1029C67.5146 21.3989 67.4741 21.6197 67.4685 21.7654C67.4728 21.9136 67.5736 22.0128 67.7709 22.0631C67.8597 22.0857 67.9943 22.0937 68.1746 22.0871L67.9258 23.0639C67.676 23.1369 67.3587 23.1244 66.9739 23.0263C66.6483 22.9434 66.4095 22.788 66.2574 22.5601C66.1177 22.3249 66.1006 22.0001 66.2062 21.5857C65.7553 21.9121 65.2741 22.11 64.7626 22.1793C64.2635 22.2413 63.7475 22.2044 63.2147 22.0686ZM63.7749 21.0451C64.1893 21.1507 64.5584 21.1869 64.882 21.1538C65.2082 21.1108 65.4864 21.0293 65.7166 20.9093C65.9493 20.7795 66.1352 20.6272 66.2742 20.4525C66.4158 20.2679 66.5092 20.0868 66.5545 19.9092L66.8825 18.6216C66.692 18.7097 66.4621 18.7457 66.193 18.7297C65.9239 18.7136 65.6413 18.6889 65.3451 18.6555C65.0588 18.6246 64.7675 18.5924 64.4713 18.559C64.1752 18.5255 63.901 18.5293 63.649 18.5701C63.3969 18.611 63.173 18.7063 62.9772 18.856C62.7938 18.9984 62.6619 19.2275 62.5815 19.5432C62.5287 19.7504 62.5229 19.9381 62.5642 20.1062C62.6178 20.267 62.6974 20.4081 62.803 20.5296C62.9186 20.6535 63.0601 20.7579 63.2276 20.8426C63.3952 20.9273 63.5776 20.9948 63.7749 21.0451Z" fill="#0A0A0A"/>
<path d="M71.6603 25.0947C70.7529 24.6329 70.1357 24.0274 69.8086 23.2783C69.4906 22.5337 69.5062 21.6391 69.8552 20.5943C69.9947 20.1854 70.1846 19.7451 70.4247 19.2733C70.5956 18.9375 70.7825 18.5928 70.9854 18.2391C71.1974 17.89 71.4206 17.5523 71.6552 17.2261C71.8988 16.9046 72.1537 16.6059 72.4198 16.33C72.6949 16.0588 72.9857 15.8354 73.292 15.6601C73.8453 15.3362 74.402 15.1739 74.9621 15.1734C75.5268 15.1638 76.1565 15.3072 76.8511 15.6036C77.3142 15.7936 77.707 15.9421 78.0295 16.0492C78.352 16.1562 78.5777 16.1282 78.7063 15.9652L79.8633 16.5541C79.665 16.8988 79.4493 17.1317 79.2162 17.253C78.9831 17.3743 78.7186 17.4225 78.4228 17.3976C78.1317 17.3636 77.7999 17.2747 77.4275 17.1309C77.0598 16.978 76.6307 16.7996 76.1404 16.5957C75.7364 16.4244 75.3499 16.3419 74.981 16.3484C74.6121 16.3548 74.2564 16.4365 73.9137 16.5934C73.5848 16.7459 73.2667 16.9667 72.9596 17.256C72.657 17.5361 72.3723 17.8711 72.1054 18.2607L72.1462 18.2815C72.5814 17.9204 73.0839 17.6963 73.6537 17.6093C74.2326 17.5269 74.8215 17.6382 75.4204 17.943C76.4095 18.4464 77.0328 19.1521 77.2904 20.0601C77.548 20.9681 77.3812 22.0029 76.79 23.1643C76.4898 23.7542 76.1426 24.2344 75.7483 24.6049C75.3678 24.971 74.9538 25.2344 74.5064 25.3952C74.0636 25.5468 73.5988 25.5959 73.1119 25.5423C72.6342 25.4933 72.1503 25.3441 71.6603 25.0947ZM72.1727 24.1217C72.4449 24.2602 72.7358 24.3397 73.0453 24.3601C73.3594 24.3715 73.6672 24.3168 73.9686 24.196C74.27 24.0752 74.5605 23.8861 74.8401 23.6285C75.1243 23.3619 75.375 23.0153 75.592 22.5888C76.0123 21.7631 76.152 21.0173 76.0111 20.3515C75.8701 19.6857 75.473 19.1865 74.8196 18.8539C74.1663 18.5214 73.5222 18.4963 72.8872 18.7786C72.2659 19.0565 71.7451 19.6083 71.3248 20.434C70.9184 21.2325 70.788 21.9602 70.9335 22.6169C71.0791 23.2737 71.4922 23.7753 72.1727 24.1217Z" fill="#0A0A0A"/>
<path d="M77.7788 29.0839C77.2908 28.6834 76.9264 28.2526 76.6857 27.7916C76.4593 27.3292 76.3364 26.853 76.3171 26.363C76.3043 25.8651 76.3931 25.3716 76.5837 24.8826C76.7743 24.3936 77.0537 23.9248 77.4218 23.4761C77.79 23.0275 78.1953 22.662 78.6378 22.3797C79.0867 22.0896 79.5533 21.9061 80.0377 21.8295C80.5286 21.745 81.0228 21.7687 81.5205 21.9005C82.0261 22.0388 82.5229 22.3082 83.0108 22.7087C83.491 23.1027 83.8481 23.5342 84.0824 24.003C84.3167 24.4719 84.4403 24.9553 84.4531 25.4532C84.4724 25.9432 84.3836 26.4367 84.1865 26.9336C83.996 27.4226 83.7166 27.8914 83.3484 28.34C82.9802 28.7887 82.5749 29.1541 82.1325 29.4364C81.69 29.7187 81.2234 29.9021 80.7325 29.9867C80.2481 30.0633 79.7532 30.0325 79.2476 29.8942C78.7485 29.748 78.2589 29.4779 77.7788 29.0839ZM78.4958 28.2102C78.7555 28.4234 79.0415 28.5725 79.3537 28.6575C79.6738 28.7489 79.9979 28.7713 80.3261 28.7245C80.6607 28.6698 80.9915 28.5396 81.3185 28.3338C81.6598 28.1265 81.9823 27.8379 82.2859 27.468C82.5895 27.0981 82.8064 26.7295 82.9366 26.3622C83.0811 25.9934 83.1476 25.6396 83.1359 25.3008C83.1242 24.9619 83.0423 24.6444 82.8902 24.3483C82.7459 24.0587 82.5439 23.8073 82.2842 23.5941C82.0244 23.381 81.7345 23.2287 81.4144 23.1372C81.1022 23.0522 80.7788 23.037 80.4442 23.0917C80.1095 23.1463 79.7715 23.2773 79.4302 23.4845C79.1032 23.6904 78.788 23.9782 78.4844 24.3481C78.1808 24.7181 77.9567 25.0874 77.8122 25.4561C77.6819 25.8234 77.6227 26.1765 77.6343 26.5154C77.6525 26.8464 77.7337 27.1567 77.8779 27.4463C78.0301 27.7424 78.236 27.9971 78.4958 28.2102Z" fill="#0A0A0A"/>
<path d="M87.665 29.1159L85.8885 26.9188L86.7792 26.1986L91.1485 31.6022L90.2577 32.3224L88.4812 30.1254L83.232 34.3698L82.4157 33.3603L87.665 29.1159Z" fill="#0A0A0A"/>
<path d="M82.8722 39.2006C82.7999 39.0661 82.7366 38.9267 82.6823 38.7825C82.6279 38.6384 82.5895 38.4914 82.5668 38.3418L83.6162 37.778C83.6382 37.9049 83.6601 38.0318 83.6821 38.1587C83.7089 38.2946 83.7536 38.4208 83.8162 38.5374C83.9415 38.7706 84.0965 38.93 84.2812 39.0157C84.466 39.1014 84.6904 39.1426 84.9545 39.1394L86.378 38.9815L91.8115 32.5081L92.5054 33.7996L87.9059 38.8888L87.9204 38.9157L94.6595 37.8089L95.31 39.0197L85.8131 40.2212C85.4 40.2698 85.0407 40.2894 84.7352 40.2802C84.4345 40.2799 84.1691 40.2376 83.9388 40.1532C83.7044 40.0827 83.5028 39.9656 83.334 39.802C83.1611 39.6522 83.0071 39.4518 82.8722 39.2006Z" fill="#0A0A0A"/>
<path d="M45.8184 66.182L66.182 45.8184" stroke="#0A0A0A" stroke-width="1.27273" stroke-linecap="round" stroke-linejoin="round"/>
<path d="M45.8184 45.8184H66.182V66.182" stroke="#0A0A0A" stroke-width="1.27273" stroke-linecap="round" stroke-linejoin="round"/>
</svg>
