<svg width="86" height="56" viewBox="0 0 86 56" fill="none" xmlns="http://www.w3.org/2000/svg">
<rect x="1.5" y="1.5" width="83" height="53" stroke="#0A0A0A" stroke-width="3"/>
<path d="M25.616 37.514L26.858 44H30.446L24.282 11.8H19.084L12.92 44H16.232L17.474 37.514H25.616ZM21.476 15.848L25.11 34.432H17.934L21.476 15.848ZM36.0063 11.8V44H43.4123C48.4263 44 50.7723 41.286 50.7723 36.456V33.742C50.7723 30.2 49.5763 27.716 46.4483 26.842C49.2543 25.968 50.2203 23.852 50.2203 20.448V18.93C50.2203 14.192 48.2423 11.8 43.2283 11.8H36.0063ZM39.5943 25.462V15.066H43.1363C45.7123 15.066 46.6783 16.446 46.6783 19.298V21.184C46.6783 24.542 45.2063 25.462 42.3543 25.462H39.5943ZM39.5943 40.734V28.728H42.7223C45.8043 28.728 47.2303 29.924 47.2303 33.512V36.364C47.2303 39.354 46.0343 40.734 43.4123 40.734H39.5943ZM59.9539 17.964L68.1879 44H71.9139V11.8H68.7399V35.076L61.2879 11.8H56.7339V44H59.9539V17.964Z" fill="#0A0A0A"/>
</svg>
