<svg width="61" height="40" viewBox="0 0 61 40" fill="none" xmlns="http://www.w3.org/2000/svg">
<rect x="1" y="1" width="59" height="38" stroke="#FFFFFE" stroke-width="2"/>
<path d="M18.472 26.488L19.336 31H21.832L17.544 8.6H13.928L9.64 31H11.944L12.808 26.488H18.472ZM15.592 11.416L18.12 24.344H13.128L15.592 11.416ZM25.7 8.6V31H30.852C34.34 31 35.972 29.112 35.972 25.752V23.864C35.972 21.4 35.14 19.672 32.964 19.064C34.916 18.456 35.588 16.984 35.588 14.616V13.56C35.588 10.264 34.212 8.6 30.724 8.6H25.7ZM28.196 18.104V10.872H30.66C32.452 10.872 33.124 11.832 33.124 13.816V15.128C33.124 17.464 32.1 18.104 30.116 18.104H28.196ZM28.196 28.728V20.376H30.372C32.516 20.376 33.508 21.208 33.508 23.704V25.688C33.508 27.768 32.676 28.728 30.852 28.728H28.196ZM42.3593 12.888L48.0873 31H50.6793V8.6H48.4713V24.792L43.2873 8.6H40.1193V31H42.3593V12.888Z" fill="#FFFFFE"/>
</svg>
